<svg xmlns="http://www.w3.org/2000/svg" viewBox="0 0 500 500"><g id="freepik--background-simple--inject-2"><path d="M402.12,428.84a118.5,118.5,0,0,0,38.24-40.42C497.52,289,484.61,142.26,374.53,79.36c-50.88-29.07-124.12-47.47-179.1-17.61-44.6,24.22-71.94,69.81-94.55,111.3-14.23,26.09-25.94,54.17-43.45,78.58C34.7,283.29,9.69,325.57,34.94,362.35c34.41,50.1,99.4,73,158.34,88,63.94,16.34,135.83,18.66,194.89-13.21Q395.34,433.31,402.12,428.84Z" style="fill:#3EA2E0"></path><path d="M402.12,428.84a118.5,118.5,0,0,0,38.24-40.42C497.52,289,484.61,142.26,374.53,79.36c-50.88-29.07-124.12-47.47-179.1-17.61-44.6,24.22-71.94,69.81-94.55,111.3-14.23,26.09-25.94,54.17-43.45,78.58C34.7,283.29,9.69,325.57,34.94,362.35c34.41,50.1,99.4,73,158.34,88,63.94,16.34,135.83,18.66,194.89-13.21Q395.34,433.31,402.12,428.84Z" style="fill:#fff;opacity:0.7000000000000001"></path></g><g id="freepik--wifi-icon--inject-2"><path d="M338.24,85.87c42,.65,77.12,16.6,104.75,48.5a9.71,9.71,0,0,1-.9,14,9.58,9.58,0,0,1-13.67-1.28,120.2,120.2,0,0,0-35.33-28.48,117.06,117.06,0,0,0-130.8,14.24c-5.08,4.29-9.6,9.28-14.18,14.13-4,4.21-9.81,4.88-14,1.27s-4.45-9.64-.67-14Q268.15,94,320.82,86.7c2.75-.38,5.52-.67,8.3-.8C332.15,85.76,335.2,85.87,338.24,85.87Z" style="fill:#263238"></path><path d="M341.71,124.85c26.57.69,51.56,12,71.21,34.76,3.88,4.48,3.43,10.26-.88,14-4.09,3.52-10,3.05-13.81-1.33-10.26-11.88-22.69-20.59-37.85-24.68-30.89-8.34-57.6-.74-80,22.13-.83.85-1.6,1.76-2.39,2.65a9.71,9.71,0,1,1-14.68-12.72,97.47,97.47,0,0,1,31.33-24.56C308.43,128.23,323,124.92,341.71,124.85Z" style="fill:#263238"></path><path d="M385.43,191.34a9.72,9.72,0,0,1-6.21,9.09,9.59,9.59,0,0,1-10.83-2.72,41.17,41.17,0,0,0-14.84-11c-16-6.76-33.55-2.56-45.42,10.84-2.81,3.18-6.32,4.33-10.38,3.1A9.71,9.71,0,0,1,293.24,185c20.32-24.5,57.7-28,82.15-7.54a59,59,0,0,1,7.69,7.71c1.35,1.64,1.93,3.91,2.86,5.9Z" style="fill:#263238"></path><path d="M338.2,242.38A19.51,19.51,0,1,1,357.65,223,19.42,19.42,0,0,1,338.2,242.38Z" style="fill:#263238"></path></g><g id="freepik--globe-icon--inject-2"><circle cx="204.83" cy="319.36" r="23.25" transform="translate(-165.83 238.37) rotate(-45)" style="fill:none;stroke:#263238;stroke-linecap:round;stroke-linejoin:round;stroke-width:2px"></circle><ellipse cx="204.83" cy="319.36" rx="11.5" ry="23.25" style="fill:none;stroke:#263238;stroke-linecap:round;stroke-linejoin:round;stroke-width:2px"></ellipse><path d="M188.83,302.91a23.25,23.25,0,0,0,32.22-.21" style="fill:none;stroke:#263238;stroke-linecap:round;stroke-linejoin:round;stroke-width:2px"></path><path d="M220.89,335.87a23.24,23.24,0,0,0-32.36.22" style="fill:none;stroke:#263238;stroke-linecap:round;stroke-linejoin:round;stroke-width:2px"></path><line x1="181.58" y1="319.36" x2="228.08" y2="319.36" style="fill:none;stroke:#263238;stroke-linecap:round;stroke-linejoin:round;stroke-width:2px"></line><line x1="204.83" y1="296.11" x2="204.83" y2="342.61" style="fill:none;stroke:#263238;stroke-linecap:round;stroke-linejoin:round;stroke-width:2px"></line><line x1="204.94" y1="288.76" x2="204.94" y2="286.26" style="fill:none;stroke:#263238;stroke-linecap:round;stroke-linejoin:round"></line><line x1="204.94" y1="281.18" x2="204.94" y2="30.01" style="fill:none;stroke:#263238;stroke-linecap:round;stroke-linejoin:round;stroke-dasharray:5.074160099029541,5.074160099029541"></line><line x1="204.94" y1="27.48" x2="204.94" y2="24.98" style="fill:none;stroke:#263238;stroke-linecap:round;stroke-linejoin:round"></line></g><g id="freepik--ubication-icon--inject-2"><path d="M167.43,153.23A14.45,14.45,0,0,0,153,167.68c0,8,14.45,24.29,14.45,24.29s14.44-16.31,14.44-24.29A14.44,14.44,0,0,0,167.43,153.23Zm0,21a6.57,6.57,0,1,1,6.56-6.56A6.57,6.57,0,0,1,167.43,174.24Z" style="fill:#263238;stroke:#263238;stroke-linecap:round;stroke-linejoin:round"></path><line x1="167.43" y1="153.23" x2="167.43" y2="150.73" style="fill:none;stroke:#263238;stroke-linecap:round;stroke-linejoin:round"></line><line x1="167.43" y1="145.8" x2="167.43" y2="29.94" style="fill:none;stroke:#263238;stroke-linecap:round;stroke-linejoin:round;stroke-dasharray:4.930140018463135,4.930140018463135"></line><line x1="167.43" y1="27.48" x2="167.43" y2="24.98" style="fill:none;stroke:#263238;stroke-linecap:round;stroke-linejoin:round"></line></g><g id="freepik--chat-icon--inject-2"><path d="M133.27,271.76H104.64a8.44,8.44,0,0,0-8.44,8.44v13a8.44,8.44,0,0,0,8.44,8.44h0l.29,13.1,9-13.1h19.36a8.44,8.44,0,0,0,8.44-8.44v-13A8.44,8.44,0,0,0,133.27,271.76Z" style="fill:#fff;stroke:#263238;stroke-linecap:round;stroke-linejoin:round"></path><path d="M122.47,278.79H146a7,7,0,0,1,6.95,6.94v10.72a7,7,0,0,1-6.95,6.94h0l-.23,10.76-7.38-10.76H122.47a6.94,6.94,0,0,1-6.94-6.94V285.73A6.94,6.94,0,0,1,122.47,278.79Z" style="fill:#263238;stroke:#263238;stroke-linecap:round;stroke-linejoin:round"></path><path d="M129.5,291.08a2.59,2.59,0,1,0-2.58,2.59A2.59,2.59,0,0,0,129.5,291.08Z" style="fill:#3EA2E0"></path><circle cx="134.93" cy="291.08" r="2.59" style="fill:#3EA2E0"></circle><circle cx="142.94" cy="291.08" r="2.59" style="fill:#3EA2E0"></circle><line x1="127.51" y1="262.61" x2="127.51" y2="260.11" style="fill:none;stroke:#263238;stroke-linecap:round;stroke-linejoin:round"></line><line x1="127.51" y1="255.18" x2="127.51" y2="30.84" style="fill:none;stroke:#263238;stroke-linecap:round;stroke-linejoin:round;stroke-dasharray:4.9305100440979,4.9305100440979"></line><line x1="127.51" y1="28.37" x2="127.51" y2="25.87" style="fill:none;stroke:#263238;stroke-linecap:round;stroke-linejoin:round"></line></g><g id="freepik--email-icon--inject-2"><rect x="66.27" y="189.15" width="50.56" height="29.55" style="fill:#fff;stroke:#263238;stroke-linecap:round;stroke-linejoin:round"></rect><polygon points="66.27 218.7 91.16 195.72 116.84 218.7 66.27 218.7" style="fill:#fff;stroke:#263238;stroke-linecap:round;stroke-linejoin:round"></polygon><polygon points="66.27 189.15 91.56 203.93 116.84 189.15 66.27 189.15" style="fill:#fff;stroke:#263238;stroke-linecap:round;stroke-linejoin:round"></polygon><line x1="91.11" y1="187.8" x2="91.11" y2="185.3" style="fill:none;stroke:#263238;stroke-linecap:round;stroke-linejoin:round"></line><line x1="91.11" y1="180.61" x2="91.11" y2="145.4" style="fill:none;stroke:#263238;stroke-linecap:round;stroke-linejoin:round;stroke-dasharray:4.694049835205078,4.694049835205078"></line><line x1="91.11" y1="143.06" x2="91.11" y2="140.56" style="fill:none;stroke:#263238;stroke-linecap:round;stroke-linejoin:round"></line></g><g id="freepik--cloud-icon--inject-2"><path d="M104.63,97.88a27.39,27.39,0,0,0-50.92,4.94c-.44,0-.88-.07-1.32-.07a16.58,16.58,0,0,0-2.22,33.05V136h51.15a19.15,19.15,0,0,0,3.31-38.08Z" style="fill:#fff;stroke:#263238;stroke-linecap:round;stroke-linejoin:round"></path><line x1="80.08" y1="82.71" x2="80.08" y2="80.21" style="fill:none;stroke:#263238;stroke-linecap:round;stroke-linejoin:round"></line><line x1="80.08" y1="75.33" x2="80.08" y2="28.99" style="fill:none;stroke:#263238;stroke-linecap:round;stroke-linejoin:round;stroke-dasharray:4.8783698081970215,4.8783698081970215"></line><line x1="80.08" y1="26.55" x2="80.08" y2="24.05" style="fill:none;stroke:#263238;stroke-linecap:round;stroke-linejoin:round"></line></g><g id="freepik--share-icon--inject-2"><path d="M47.58,261.1a5.25,5.25,0,0,0-3.17,1.08l-12.59-9.45a5.05,5.05,0,0,0,.35-1.87A5.26,5.26,0,1,0,30.09,255l12.59,9.44a5.36,5.36,0,0,0-.35,1.88,5.27,5.27,0,0,0,.35,1.87l-12.59,9.44a5.25,5.25,0,1,0,2.08,4.19,5.15,5.15,0,0,0-.35-1.88l12.59-9.44a5.25,5.25,0,1,0,3.17-9.44Z" style="fill:#263238"></path><line x1="39.84" y1="88.78" x2="39.84" y2="86.28" style="fill:none;stroke:#263238;stroke-linecap:round;stroke-linejoin:round"></line><line x1="39.84" y1="80.91" x2="39.84" y2="29.91" style="fill:none;stroke:#263238;stroke-linecap:round;stroke-linejoin:round;stroke-dasharray:5.368269920349121,5.368269920349121"></line><line x1="39.84" y1="27.23" x2="39.84" y2="24.73" style="fill:none;stroke:#263238;stroke-linecap:round;stroke-linejoin:round"></line><line x1="39.84" y1="249.98" x2="39.84" y2="247.48" style="fill:none;stroke:#263238;stroke-linecap:round;stroke-linejoin:round"></line><line x1="39.84" y1="242.47" x2="39.84" y2="144.64" style="fill:none;stroke:#263238;stroke-linecap:round;stroke-linejoin:round;stroke-dasharray:5.0167999267578125,5.0167999267578125"></line><line x1="39.84" y1="142.13" x2="39.84" y2="139.63" style="fill:none;stroke:#263238;stroke-linecap:round;stroke-linejoin:round"></line></g><g id="freepik--Plant--inject-2"><ellipse cx="93.39" cy="371.93" rx="12.68" ry="33.26" style="fill:#3EA2E0;stroke:#263238;stroke-miterlimit:10"></ellipse><ellipse cx="122.96" cy="348.29" rx="23.7" ry="10.32" transform="translate(-246.22 360.01) rotate(-72.37)" style="fill:#3EA2E0;stroke:#263238;stroke-miterlimit:10"></ellipse><path d="M39.75,426.65c-12.91-2.19-22.6-8.52-21.65-14.13s12.19-8.4,25.09-6.22,22.6,8.52,21.65,14.13S52.65,428.83,39.75,426.65Z" style="fill:#3EA2E0;stroke:#263238;stroke-miterlimit:10"></path><path d="M144.73,395.9c-10.78,10.69-23.52,15.33-28.45,10.35s-.19-17.67,10.59-28.36,23.52-15.33,28.45-10.35S155.51,385.21,144.73,395.9Z" style="fill:#3EA2E0;stroke:#263238;stroke-miterlimit:10"></path><path d="M70.44,366.57C80.87,381.7,84,397.64,77.38,402.18S57,398.15,46.57,383,33,352,39.63,347.41,60,351.45,70.44,366.57Z" style="fill:#3EA2E0;stroke:#263238;stroke-miterlimit:10"></path><line x1="94.28" y1="403.53" x2="95.26" y2="449.26" style="fill:none;stroke:#263238;stroke-linecap:round;stroke-miterlimit:10"></line><line x1="93.1" y1="359.56" x2="94.28" y2="403.53" style="fill:none;stroke:#263238;stroke-linecap:round;stroke-miterlimit:10"></line><line x1="93.18" y1="352.39" x2="93.1" y2="355.76" style="fill:none;stroke:#263238;stroke-linecap:round;stroke-miterlimit:10"></line><path d="M77.33,400a127.65,127.65,0,0,1,12.53,48" style="fill:none;stroke:#263238;stroke-linecap:round;stroke-miterlimit:10"></path><path d="M55.55,366.7A150.6,150.6,0,0,1,77.33,400" style="fill:none;stroke:#263238;stroke-linecap:round;stroke-miterlimit:10"></path><path d="M48.7,359.45s1.31,1.21,3.47,3.5" style="fill:none;stroke:#263238;stroke-linecap:round;stroke-miterlimit:10"></path><path d="M117.07,404.72a150.09,150.09,0,0,0-20.56,40.79" style="fill:none;stroke:#263238;stroke-linecap:round;stroke-miterlimit:10"></path><path d="M131.65,388a119.81,119.81,0,0,0-14.58,16.76" style="fill:none;stroke:#263238;stroke-linecap:round;stroke-miterlimit:10"></path><path d="M147.23,376.08A66.64,66.64,0,0,0,136.12,384" style="fill:none;stroke:#263238;stroke-linecap:round;stroke-miterlimit:10"></path><path d="M116.53,367.79c-7,22.11-16.45,54.77-20.85,83.13" style="fill:none;stroke:#263238;stroke-linecap:round;stroke-miterlimit:10"></path><path d="M120.81,354.68c-1.25,3.73-2.7,8.15-4.28,13.11" style="fill:none;stroke:#263238;stroke-linecap:round;stroke-miterlimit:10"></path><path d="M125.2,342s-1.23,3.39-3.21,9.19" style="fill:none;stroke:#263238;stroke-linecap:round;stroke-miterlimit:10"></path><path d="M64.19,417.37c8.78,3.33,17.34,9.75,21.51,21.91" style="fill:none;stroke:#263238;stroke-linecap:round;stroke-miterlimit:10"></path><path d="M48,414.07a55.5,55.5,0,0,1,16.21,3.3" style="fill:none;stroke:#263238;stroke-linecap:round;stroke-miterlimit:10"></path><path d="M37.47,414.33s1.56-.22,4.14-.32" style="fill:none;stroke:#263238;stroke-linecap:round;stroke-miterlimit:10"></path><path d="M150.2,426.65c12.91-2.19,22.6-8.52,21.65-14.13s-12.19-8.4-25.1-6.22-22.59,8.52-21.64,14.13S137.29,428.83,150.2,426.65Z" style="fill:#3EA2E0;stroke:#263238;stroke-miterlimit:10"></path><path d="M126,417.27c-8.88,3.29-17.58,9.72-21.79,22" style="fill:none;stroke:#263238;stroke-linecap:round;stroke-miterlimit:10"></path><path d="M143.33,414A56,56,0,0,0,126,417.27" style="fill:none;stroke:#263238;stroke-linecap:round;stroke-miterlimit:10"></path><path d="M152.47,414.33s-1-.14-2.79-.25" style="fill:none;stroke:#263238;stroke-linecap:round;stroke-miterlimit:10"></path><path d="M125.85,478.14a61.49,61.49,0,0,0,6-26.18,54.13,54.13,0,0,0-2.4-16H61.91a53.81,53.81,0,0,0-2.4,16,61.63,61.63,0,0,0,6,26.18Z" style="fill:#263238"></path><path d="M60.17,443.44c-.19,1.23-.34,2.47-.45,3.74h71.91c-.11-1.27-.26-2.51-.45-3.74Z" style="fill:#7a7a7a"></path><path d="M130.87,462.56c.22-1.24.42-2.49.57-3.74H59.92c.15,1.25.34,2.5.57,3.74Z" style="fill:#7a7a7a"></path><path d="M68.24,452.17a2.91,2.91,0,1,1-2.91-2.91A2.92,2.92,0,0,1,68.24,452.17Z" style="fill:#8c8c8c"></path><path d="M82.79,452.17a2.91,2.91,0,1,1-2.91-2.91A2.91,2.91,0,0,1,82.79,452.17Z" style="fill:#8c8c8c"></path><path d="M97.34,452.17a2.91,2.91,0,1,1-2.91-2.91A2.91,2.91,0,0,1,97.34,452.17Z" style="fill:#8c8c8c"></path><circle cx="108.98" cy="452.17" r="2.91" style="fill:#8c8c8c"></circle><path d="M126.44,452.17a2.91,2.91,0,1,1-2.91-2.91A2.91,2.91,0,0,1,126.44,452.17Z" style="fill:#8c8c8c"></path></g><g id="freepik--Device--inject-2"><path d="M443.65,250.08h0a3.86,3.86,0,0,0-4.27,3.35L420,403.17l12.62,1.42L447.07,254.3A3.88,3.88,0,0,0,443.65,250.08Z" style="fill:#263238;stroke:#263238;stroke-linecap:round;stroke-linejoin:round"></path><path d="M248.77,250.08h0a3.86,3.86,0,0,1,4.27,3.35l19.4,149.74-12.62,1.42L245.35,254.3A3.88,3.88,0,0,1,248.77,250.08Z" style="fill:#263238;stroke:#263238;stroke-linecap:round;stroke-linejoin:round"></path><rect x="264.08" y="400.15" width="206.45" height="77.98" rx="4.59" style="fill:#fff;stroke:#263238;stroke-linecap:round;stroke-linejoin:round"></rect><rect x="259.71" y="409.77" width="215.19" height="58.76" rx="4.17" style="fill:#fff;stroke:#263238;stroke-linecap:round;stroke-linejoin:round"></rect><rect x="155.81" y="400.15" width="206.45" height="77.98" rx="4.59" style="fill:#fff;stroke:#263238;stroke-linecap:round;stroke-linejoin:round"></rect><rect x="151.44" y="409.77" width="215.19" height="58.76" rx="4.17" style="fill:#fff;stroke:#263238;stroke-linecap:round;stroke-linejoin:round"></rect><rect x="169.54" y="422.65" width="180.84" height="31.58" rx="5.01" style="fill:#263238;stroke:#263238;stroke-linecap:round;stroke-linejoin:round"></rect><path d="M179.59,430.3a8.39,8.39,0,1,0,6.38.06" style="fill:none;stroke:#3EA2E0;stroke-linecap:round;stroke-miterlimit:10;stroke-width:3px"></path><line x1="182.79" y1="427.05" x2="182.79" y2="433.26" style="fill:none;stroke:#3EA2E0;stroke-linecap:round;stroke-miterlimit:10;stroke-width:3px"></line></g><g id="freepik--Character--inject-2"><path d="M280.67,447.23s-8.17,2.57-9.9,2.9-7-1-7.21,1,3.06,3.93,8.19,6,10.76,3.76,14.58,3.59,3.09-7.7,3.3-9S280.67,447.23,280.67,447.23Z" style="fill:#fff;stroke:#263238;stroke-linecap:round;stroke-linejoin:round"></path><path d="M274.43,455.31c-6.39-2.64-9.37-4-10.67-4.65a.89.89,0,0,0-.2.51c-.16,2.09,3.06,3.93,8.19,6s10.76,3.76,14.58,3.59c1.43-.07,2.22-1.16,2.66-2.57A36.87,36.87,0,0,1,274.43,455.31Z" style="fill:#fff;stroke:#263238;stroke-linecap:round;stroke-linejoin:round"></path><path d="M330.32,370.55l-2.14,1.17v3.11s-44.63,7.44-45.21,11.33-2.35,61.76-2.35,61.76,7.2,7.75,8.75,6,1.95-7.36,1.95-7.36l7.4-51.26s50.27,4.62,57.86,2.28,11.28-12.44,11.47-17.11.2-6.81.2-6.81L334,369Z" style="fill:#3EA2E0;stroke:#263238;stroke-linecap:round;stroke-linejoin:round"></path><path d="M315.15,449.32l-.32.53a50.44,50.44,0,0,1-5.51,7.25c-3.31,3.5-8.75,6.42-8.56,7.58s3.89,1.95,16.53-1.94c5.69-1.75,9.92-1.75,10.5-3.7s-4.08-10.3-4.08-10.3Z" style="fill:#fff;stroke:#263238;stroke-linecap:round;stroke-linejoin:round"></path><path d="M327.79,459a5.46,5.46,0,0,0-.5-2.74,76.92,76.92,0,0,1-13.3,4.88,85.49,85.49,0,0,1-12.61,2.49c-.42.41-.66.76-.62,1,.19,1.17,3.89,1.95,16.53-1.94C323,461,327.21,461,327.79,459Z" style="fill:#fff;stroke:#263238;stroke-linecap:round;stroke-linejoin:round"></path><path d="M342.58,378.91s-4.67-4.08-5.06-1.75-1.17,2.92-1.17,2.92S303.68,384,300,386.3s-4.86,5.45-2.72,10.12,16.53,55.82,16.53,55.82a23.76,23.76,0,0,0,4.67,1.55c2.14.39,6.61-1.75,6.61-1.75s-.54-9.53-1.9-12.64-6.93-39-6.93-39,23.61.09,31.59.09,16.72-6.61,18.47-12.06,1-6.61,1-6.61" style="fill:#3EA2E0;stroke:#263238;stroke-linecap:round;stroke-linejoin:round"></path><line x1="316.24" y1="400.41" x2="315.11" y2="394.29" style="fill:none;stroke:#263238;stroke-linecap:round;stroke-linejoin:round"></line><path d="M353.37,387.51a12.17,12.17,0,0,1,1.51,2.83" style="fill:none;stroke:#263238;stroke-linecap:round;stroke-linejoin:round"></path><path d="M344.48,380.76a22.57,22.57,0,0,1,7.64,5.2" style="fill:none;stroke:#263238;stroke-linecap:round;stroke-linejoin:round"></path><path d="M351.87,381.86a15.63,15.63,0,0,1,7.12,6.56" style="fill:none;stroke:#263238;stroke-linecap:round;stroke-linejoin:round"></path><path d="M330.8,322.82s0,.28-.05.76c-.17,2.75-3.22,6.84-1.4,12,4.13,11.64,3.29,20.19,2.92,17.7.58,3.89-2.92,12.25-2.92,15s-7.2,3.13,9.14,8,22,4.65,26.06,3.09,7-2.92,7.39-6.22-3.11-9.14-3.3-14.2-.89-20.89-5.75-31-17.7-17.12-17.7-17.12Z" style="fill:#fff;stroke:#263238;stroke-linecap:round;stroke-linejoin:round"></path><path d="M356.4,361c.85-.65,1.64-1.31,2.37-2" style="fill:none;stroke:#263238;stroke-linecap:round;stroke-linejoin:round"></path><path d="M335.9,372.44a129.55,129.55,0,0,0,17.39-9.28" style="fill:none;stroke:#263238;stroke-linecap:round;stroke-linejoin:round"></path><path d="M342.17,371.32a39.69,39.69,0,0,1-7.22,2.77" style="fill:none;stroke:#263238;stroke-linecap:round;stroke-linejoin:round"></path><path d="M345.33,369.61s-.55.34-1.47.84" style="fill:none;stroke:#263238;stroke-linecap:round;stroke-linejoin:round"></path><line x1="348.02" y1="343.9" x2="353.27" y2="337.49" style="fill:none;stroke:#263238;stroke-linecap:round;stroke-linejoin:round"></line><path d="M329,279.69a28,28,0,0,0-3.5,4.49c-.85,1.68-1,2.9-2.45,4s-4.45.39-4.37,2.12,1.88,3.38,1.88,3.38-1.46,10.56-.91,12.24,8.11,2,8.11,2l3.85,12.54,13.59-9.21.36-3.65c.34-1.48,2.78-6.06,4.8-9.5s1.12-12.5-3.76-16.4-11.34-3.5-13.33-3.64S329,279.69,329,279.69Z" style="fill:#fff;stroke:#263238;stroke-linecap:round;stroke-linejoin:round"></path><path d="M321.44,295.72a4.82,4.82,0,0,0,5,1.14" style="fill:none;stroke:#263238;stroke-linecap:round;stroke-linejoin:round"></path><path d="M327.22,289.37c-.33.77-.85,1.28-1.16,1.15s-.29-.87.05-1.64.85-1.28,1.15-1.15S327.55,288.6,327.22,289.37Z" style="fill:#263238"></path><path d="M326.69,285.55s2.93-.58,3.37,2.32" style="fill:none;stroke:#263238;stroke-linecap:round;stroke-linejoin:round"></path><polygon points="327.71 307.87 332.42 307.69 329.19 311.63 327.71 307.87" style="fill:#263238;stroke:#263238;stroke-linecap:round;stroke-linejoin:round"></polygon><polyline points="338.46 302.99 336.42 302.38 335.21 304.28" style="fill:none;stroke:#263238;stroke-linecap:round;stroke-linejoin:round"></polyline><path d="M337.32,275.05s2.94-3.38-.59-5-15.54,1.31-14.25,6.58,12.5,5.94,13.57,6-2.14,1.22-1.26,2.82,3,2.4,3.11,4.13-2,4.05-1,5.06,2.6-.5,3.62-.89,3.81,2.42,1.61,6-3.68,3.21-3.68,3.21a3.34,3.34,0,0,0,1,3.81c2,1.69,6,1.19,7-.45s2.73-3.12,6.33-6.66,5.31-12.48,2.82-18.65S341.82,272.33,337.32,275.05Z" style="fill:#263238;stroke:#263238;stroke-linecap:round;stroke-linejoin:round"></path><polygon points="345.15 307.89 326.62 321.54 327.68 327.43 348.54 312.06 345.15 307.89" style="fill:#fff;stroke:#263238;stroke-linecap:round;stroke-linejoin:round"></polygon><polygon points="298.89 387.48 331.53 380.33 323.9 375.8 292.93 382.71 298.89 387.48" style="fill:#fff;stroke:#263238;stroke-linecap:round;stroke-linejoin:round"></polygon><polygon points="284.36 356.51 298.89 387.48 292.93 382.71 278.16 353.65 284.36 356.51" style="fill:#263238;stroke:#263238;stroke-linecap:round;stroke-linejoin:round"></polygon><path d="M310.61,374.31l-7.52,1.94L298.43,383a1.86,1.86,0,0,0,1.42.52c.78-.13,2.85-1.95,2.85-1.95l5.45-1.43s-2.85,1.69-2.85,2.08.52.52,1.81.39,4.41-3,4.41-3l2.08-2.6Z" style="fill:#fff;stroke:#263238;stroke-linecap:round;stroke-linejoin:round"></path><polygon points="330.93 340.54 327.08 358.1 310.61 374.31 314.5 377.94 328.18 371.72 329.13 369.25 332.43 354.54 330.93 340.54" style="fill:#fff;stroke:#263238;stroke-linecap:round;stroke-linejoin:round"></polygon><path d="M306.05,370.77s-5.25.78-7.19.78-6.61.39-7.39.78-4.48,2.72-4.28,4.47,3.5.2,3.5.2a24.77,24.77,0,0,0,2.53,4.47c1.55,2.14,2.33,1.36,5.44.2s7.78-4.67,7.78-4.67l2.73-2.53Z" style="fill:#fff;stroke:#263238;stroke-linecap:round;stroke-linejoin:round"></path><path d="M351.72,316.09s-8-1.17-10.89,2.72a37.49,37.49,0,0,0-6.42,15.76c-.59,5.05-4.28,15.17-4.28,15.17L305.4,370.33l4.28,6.41s30-14,30.76-14.94,10.69-26.65,10.69-26.65" style="fill:#fff;stroke:#263238;stroke-linecap:round;stroke-linejoin:round"></path></g><g id="freepik--Floor--inject-2"><line x1="28.5" y1="478.14" x2="488.61" y2="478.14" style="fill:none;stroke:#263238;stroke-linecap:round;stroke-linejoin:round"></line></g></svg>